<?xml version="1.0" encoding="UTF-8" standalone="no"?>
<!DOCTYPE svg PUBLIC "-//W3C//DTD SVG 1.1//EN"
 "http://www.w3.org/Graphics/SVG/1.1/DTD/svg11.dtd">
<!-- Generated by graphviz version 2.40.1 (0)
 -->
<!-- Title: G Pages: 1 -->
<svg width="1218pt" height="379pt"
 viewBox="0.00 0.00 1218.20 378.81" xmlns="http://www.w3.org/2000/svg" xmlns:xlink="http://www.w3.org/1999/xlink">
<g id="graph0" class="graph" transform="scale(1 1) rotate(0) translate(21.6 357.2092)">
<title>G</title>
<polygon fill="#111111" stroke="transparent" points="-21.6,21.6 -21.6,-357.2092 1196.6,-357.2092 1196.6,21.6 -21.6,21.6"/>
<!-- ../knexfile.js -->
<g id="node1" class="node">
<title>../knexfile.js</title>
<path fill="none" stroke="#cfffac" d="M1167.3333,-307C1167.3333,-307 1095.6667,-307 1095.6667,-307 1091.8333,-307 1088,-303.1667 1088,-299.3333 1088,-299.3333 1088,-291.6667 1088,-291.6667 1088,-287.8333 1091.8333,-284 1095.6667,-284 1095.6667,-284 1167.3333,-284 1167.3333,-284 1171.1667,-284 1175,-287.8333 1175,-291.6667 1175,-291.6667 1175,-299.3333 1175,-299.3333 1175,-303.1667 1171.1667,-307 1167.3333,-307"/>
<text text-anchor="middle" x="1131.5" y="-291.8" font-family="Arial" font-size="14.00" fill="#cfffac">../knexfile.js</text>
</g>
<!-- app.js -->
<g id="node2" class="node">
<title>app.js</title>
<path fill="none" stroke="#c6c5fe" d="M46.3333,-207C46.3333,-207 7.6667,-207 7.6667,-207 3.8333,-207 0,-203.1667 0,-199.3333 0,-199.3333 0,-191.6667 0,-191.6667 0,-187.8333 3.8333,-184 7.6667,-184 7.6667,-184 46.3333,-184 46.3333,-184 50.1667,-184 54,-187.8333 54,-191.6667 54,-191.6667 54,-199.3333 54,-199.3333 54,-203.1667 50.1667,-207 46.3333,-207"/>
<text text-anchor="middle" x="27" y="-191.8" font-family="Arial" font-size="14.00" fill="#c6c5fe">app.js</text>
</g>
<!-- config/bookshelf.js -->
<g id="node3" class="node">
<title>config/bookshelf.js</title>
<path fill="none" stroke="#c6c5fe" d="M1044.3333,-307C1044.3333,-307 931.6667,-307 931.6667,-307 927.8333,-307 924,-303.1667 924,-299.3333 924,-299.3333 924,-291.6667 924,-291.6667 924,-287.8333 927.8333,-284 931.6667,-284 931.6667,-284 1044.3333,-284 1044.3333,-284 1048.1667,-284 1052,-287.8333 1052,-291.6667 1052,-291.6667 1052,-299.3333 1052,-299.3333 1052,-303.1667 1048.1667,-307 1044.3333,-307"/>
<text text-anchor="middle" x="988" y="-291.8" font-family="Arial" font-size="14.00" fill="#c6c5fe">config/bookshelf.js</text>
</g>
<!-- app.js&#45;&gt;config/bookshelf.js -->
<g id="edge1" class="edge">
<title>app.js&#45;&gt;config/bookshelf.js</title>
<path fill="none" stroke="#757575" d="M35.3442,-207.2998C46.2142,-221.7352 66.6147,-245.8134 90,-258.5 235.1556,-337.2477 288.3596,-335.5 453.5,-335.5 453.5,-335.5 453.5,-335.5 663,-335.5 763.3559,-335.5 788.7062,-331.0621 888,-316.5 901.3574,-314.5411 915.6103,-311.891 929.0458,-309.1339"/>
<polygon fill="#757575" stroke="#757575" points="930.066,-312.496 939.1324,-307.0143 928.6264,-305.6456 930.066,-312.496"/>
</g>
<!-- middlewares/errorMiddleware.js -->
<g id="node4" class="node">
<title>middlewares/errorMiddleware.js</title>
<path fill="none" stroke="#cfffac" d="M291.3333,-125C291.3333,-125 97.6667,-125 97.6667,-125 93.8333,-125 90,-121.1667 90,-117.3333 90,-117.3333 90,-109.6667 90,-109.6667 90,-105.8333 93.8333,-102 97.6667,-102 97.6667,-102 291.3333,-102 291.3333,-102 295.1667,-102 299,-105.8333 299,-109.6667 299,-109.6667 299,-117.3333 299,-117.3333 299,-121.1667 295.1667,-125 291.3333,-125"/>
<text text-anchor="middle" x="194.5" y="-109.8" font-family="Arial" font-size="14.00" fill="#cfffac">middlewares/errorMiddleware.js</text>
</g>
<!-- app.js&#45;&gt;middlewares/errorMiddleware.js -->
<g id="edge2" class="edge">
<title>app.js&#45;&gt;middlewares/errorMiddleware.js</title>
<path fill="none" stroke="#757575" d="M35.7956,-183.5488C46.8248,-169.4881 67.0887,-146.5385 90,-134.5 94.2796,-132.2513 98.7741,-130.2429 103.3949,-128.4491"/>
<polygon fill="#757575" stroke="#757575" points="104.757,-131.6803 113.0291,-125.0603 102.4343,-125.0768 104.757,-131.6803"/>
</g>
<!-- models/index.js -->
<g id="node5" class="node">
<title>models/index.js</title>
<path fill="none" stroke="#c6c5fe" d="M710.3333,-269C710.3333,-269 615.6667,-269 615.6667,-269 611.8333,-269 608,-265.1667 608,-261.3333 608,-261.3333 608,-253.6667 608,-253.6667 608,-249.8333 611.8333,-246 615.6667,-246 615.6667,-246 710.3333,-246 710.3333,-246 714.1667,-246 718,-249.8333 718,-253.6667 718,-253.6667 718,-261.3333 718,-261.3333 718,-265.1667 714.1667,-269 710.3333,-269"/>
<text text-anchor="middle" x="663" y="-253.8" font-family="Arial" font-size="14.00" fill="#c6c5fe">models/index.js</text>
</g>
<!-- app.js&#45;&gt;models/index.js -->
<g id="edge3" class="edge">
<title>app.js&#45;&gt;models/index.js</title>
<path fill="none" stroke="#757575" d="M54.1504,-205.0383C65.2124,-208.7966 78.1608,-213.0339 90,-216.5 297.2865,-277.1858 357.4001,-302.9404 572,-278.5 585.2225,-276.9941 599.3207,-274.2951 612.3738,-271.3229"/>
<polygon fill="#757575" stroke="#757575" points="613.1974,-274.7248 622.1201,-269.012 611.5824,-267.9136 613.1974,-274.7248"/>
</g>
<!-- routes/professor.js -->
<g id="node6" class="node">
<title>routes/professor.js</title>
<path fill="none" stroke="#c6c5fe" d="M250.3333,-207C250.3333,-207 138.6667,-207 138.6667,-207 134.8333,-207 131,-203.1667 131,-199.3333 131,-199.3333 131,-191.6667 131,-191.6667 131,-187.8333 134.8333,-184 138.6667,-184 138.6667,-184 250.3333,-184 250.3333,-184 254.1667,-184 258,-187.8333 258,-191.6667 258,-191.6667 258,-199.3333 258,-199.3333 258,-203.1667 254.1667,-207 250.3333,-207"/>
<text text-anchor="middle" x="194.5" y="-191.8" font-family="Arial" font-size="14.00" fill="#c6c5fe">routes/professor.js</text>
</g>
<!-- app.js&#45;&gt;routes/professor.js -->
<g id="edge4" class="edge">
<title>app.js&#45;&gt;routes/professor.js</title>
<path fill="none" stroke="#757575" d="M54.2846,-195.5C72.3729,-195.5 97.0391,-195.5 120.6422,-195.5"/>
<polygon fill="#757575" stroke="#757575" points="120.6706,-199.0001 130.6705,-195.5 120.6705,-192.0001 120.6706,-199.0001"/>
</g>
<!-- routes/student.js -->
<g id="node7" class="node">
<title>routes/student.js</title>
<path fill="none" stroke="#c6c5fe" d="M244.8333,-166C244.8333,-166 144.1667,-166 144.1667,-166 140.3333,-166 136.5,-162.1667 136.5,-158.3333 136.5,-158.3333 136.5,-150.6667 136.5,-150.6667 136.5,-146.8333 140.3333,-143 144.1667,-143 144.1667,-143 244.8333,-143 244.8333,-143 248.6667,-143 252.5,-146.8333 252.5,-150.6667 252.5,-150.6667 252.5,-158.3333 252.5,-158.3333 252.5,-162.1667 248.6667,-166 244.8333,-166"/>
<text text-anchor="middle" x="194.5" y="-150.8" font-family="Arial" font-size="14.00" fill="#c6c5fe">routes/student.js</text>
</g>
<!-- app.js&#45;&gt;routes/student.js -->
<g id="edge5" class="edge">
<title>app.js&#45;&gt;routes/student.js</title>
<path fill="none" stroke="#757575" d="M54.1006,-186.1829C65.1554,-182.5697 78.1117,-178.5718 90,-175.5 101.6878,-172.48 114.2046,-169.6355 126.369,-167.0732"/>
<polygon fill="#757575" stroke="#757575" points="127.3907,-170.4363 136.4782,-164.9896 125.9775,-163.5804 127.3907,-170.4363"/>
</g>
<!-- config/bookshelf.js&#45;&gt;../knexfile.js -->
<g id="edge6" class="edge">
<title>config/bookshelf.js&#45;&gt;../knexfile.js</title>
<path fill="none" stroke="#757575" d="M1052.1951,-295.5C1060.7897,-295.5 1069.5305,-295.5 1077.9169,-295.5"/>
<polygon fill="#757575" stroke="#757575" points="1077.9371,-299.0001 1087.937,-295.5 1077.937,-292.0001 1077.9371,-299.0001"/>
</g>
<!-- models/professor.js -->
<g id="node15" class="node">
<title>models/professor.js</title>
<path fill="none" stroke="#c6c5fe" d="M880.3333,-266C880.3333,-266 761.6667,-266 761.6667,-266 757.8333,-266 754,-262.1667 754,-258.3333 754,-258.3333 754,-250.6667 754,-250.6667 754,-246.8333 757.8333,-243 761.6667,-243 761.6667,-243 880.3333,-243 880.3333,-243 884.1667,-243 888,-246.8333 888,-250.6667 888,-250.6667 888,-258.3333 888,-258.3333 888,-262.1667 884.1667,-266 880.3333,-266"/>
<text text-anchor="middle" x="821" y="-250.8" font-family="Arial" font-size="14.00" fill="#c6c5fe">models/professor.js</text>
</g>
<!-- models/index.js&#45;&gt;models/professor.js -->
<g id="edge13" class="edge">
<title>models/index.js&#45;&gt;models/professor.js</title>
<path fill="none" stroke="#757575" d="M718.2607,-256.4507C726.5117,-256.2941 735.1436,-256.1302 743.7478,-255.9668"/>
<polygon fill="#757575" stroke="#757575" points="743.8795,-259.465 753.8112,-255.7757 743.7465,-252.4663 743.8795,-259.465"/>
</g>
<!-- models/student.js -->
<g id="node16" class="node">
<title>models/student.js</title>
<path fill="none" stroke="#c6c5fe" d="M874.3333,-307C874.3333,-307 767.6667,-307 767.6667,-307 763.8333,-307 760,-303.1667 760,-299.3333 760,-299.3333 760,-291.6667 760,-291.6667 760,-287.8333 763.8333,-284 767.6667,-284 767.6667,-284 874.3333,-284 874.3333,-284 878.1667,-284 882,-287.8333 882,-291.6667 882,-291.6667 882,-299.3333 882,-299.3333 882,-303.1667 878.1667,-307 874.3333,-307"/>
<text text-anchor="middle" x="821" y="-291.8" font-family="Arial" font-size="14.00" fill="#c6c5fe">models/student.js</text>
</g>
<!-- models/index.js&#45;&gt;models/student.js -->
<g id="edge14" class="edge">
<title>models/index.js&#45;&gt;models/student.js</title>
<path fill="none" stroke="#757575" d="M710.834,-269.0044C727.3099,-272.9669 745.9397,-277.4475 763.129,-281.5817"/>
<polygon fill="#757575" stroke="#757575" points="762.5149,-285.0337 773.0562,-283.9692 764.1519,-278.2278 762.5149,-285.0337"/>
</g>
<!-- controllers/professor.js -->
<g id="node8" class="node">
<title>controllers/professor.js</title>
<path fill="none" stroke="#c6c5fe" d="M521.8333,-269C521.8333,-269 385.1667,-269 385.1667,-269 381.3333,-269 377.5,-265.1667 377.5,-261.3333 377.5,-261.3333 377.5,-253.6667 377.5,-253.6667 377.5,-249.8333 381.3333,-246 385.1667,-246 385.1667,-246 521.8333,-246 521.8333,-246 525.6667,-246 529.5,-249.8333 529.5,-253.6667 529.5,-253.6667 529.5,-261.3333 529.5,-261.3333 529.5,-265.1667 525.6667,-269 521.8333,-269"/>
<text text-anchor="middle" x="453.5" y="-253.8" font-family="Arial" font-size="14.00" fill="#c6c5fe">controllers/professor.js</text>
</g>
<!-- routes/professor.js&#45;&gt;controllers/professor.js -->
<g id="edge17" class="edge">
<title>routes/professor.js&#45;&gt;controllers/professor.js</title>
<path fill="none" stroke="#757575" d="M228.8254,-207.0544C257.0779,-216.2505 298.3031,-228.9526 335,-237.5 345.4235,-239.9278 356.4277,-242.1857 367.3613,-244.2443"/>
<polygon fill="#757575" stroke="#757575" points="366.8966,-247.7174 377.3638,-246.0779 368.1589,-240.8321 366.8966,-247.7174"/>
</g>
<!-- middlewares/jwtMiddleware.js -->
<g id="node10" class="node">
<title>middlewares/jwtMiddleware.js</title>
<path fill="none" stroke="#c6c5fe" d="M544.3333,-64C544.3333,-64 362.6667,-64 362.6667,-64 358.8333,-64 355,-60.1667 355,-56.3333 355,-56.3333 355,-48.6667 355,-48.6667 355,-44.8333 358.8333,-41 362.6667,-41 362.6667,-41 544.3333,-41 544.3333,-41 548.1667,-41 552,-44.8333 552,-48.6667 552,-48.6667 552,-56.3333 552,-56.3333 552,-60.1667 548.1667,-64 544.3333,-64"/>
<text text-anchor="middle" x="453.5" y="-48.8" font-family="Arial" font-size="14.00" fill="#c6c5fe">middlewares/jwtMiddleware.js</text>
</g>
<!-- routes/professor.js&#45;&gt;middlewares/jwtMiddleware.js -->
<g id="edge18" class="edge">
<title>routes/professor.js&#45;&gt;middlewares/jwtMiddleware.js</title>
<path fill="none" stroke="#757575" d="M258.0809,-193.9979C272.869,-190.9333 287.6013,-185.3338 299,-175.5 335.7177,-143.8232 297.9377,-103.7728 335,-72.5 338.3636,-69.6619 341.9774,-67.1556 345.7773,-64.9459"/>
<polygon fill="#757575" stroke="#757575" points="347.6041,-67.9444 354.9516,-60.3113 344.4477,-61.6964 347.6041,-67.9444"/>
</g>
<!-- middlewares/roleMiddleware.js -->
<g id="node13" class="node">
<title>middlewares/roleMiddleware.js</title>
<path fill="none" stroke="#c6c5fe" d="M547.3333,-105C547.3333,-105 359.6667,-105 359.6667,-105 355.8333,-105 352,-101.1667 352,-97.3333 352,-97.3333 352,-89.6667 352,-89.6667 352,-85.8333 355.8333,-82 359.6667,-82 359.6667,-82 547.3333,-82 547.3333,-82 551.1667,-82 555,-85.8333 555,-89.6667 555,-89.6667 555,-97.3333 555,-97.3333 555,-101.1667 551.1667,-105 547.3333,-105"/>
<text text-anchor="middle" x="453.5" y="-89.8" font-family="Arial" font-size="14.00" fill="#c6c5fe">middlewares/roleMiddleware.js</text>
</g>
<!-- routes/professor.js&#45;&gt;middlewares/roleMiddleware.js -->
<g id="edge19" class="edge">
<title>routes/professor.js&#45;&gt;middlewares/roleMiddleware.js</title>
<path fill="none" stroke="#757575" d="M258.1745,-192.0848C272.548,-189.0201 287.0675,-183.8999 299,-175.5 324.7419,-157.3791 309.1345,-132.4441 335,-114.5 337.5777,-112.7117 340.2607,-111.061 343.0278,-109.5378"/>
<polygon fill="#757575" stroke="#757575" points="344.6751,-112.6284 352.1248,-105.095 341.6032,-106.3385 344.6751,-112.6284"/>
</g>
<!-- middlewares/validationMiddleware.js -->
<g id="node14" class="node">
<title>middlewares/validationMiddleware.js</title>
<path fill="none" stroke="#c6c5fe" d="M564.3333,-228C564.3333,-228 342.6667,-228 342.6667,-228 338.8333,-228 335,-224.1667 335,-220.3333 335,-220.3333 335,-212.6667 335,-212.6667 335,-208.8333 338.8333,-205 342.6667,-205 342.6667,-205 564.3333,-205 564.3333,-205 568.1667,-205 572,-208.8333 572,-212.6667 572,-212.6667 572,-220.3333 572,-220.3333 572,-224.1667 568.1667,-228 564.3333,-228"/>
<text text-anchor="middle" x="453.5" y="-212.8" font-family="Arial" font-size="14.00" fill="#c6c5fe">middlewares/validationMiddleware.js</text>
</g>
<!-- routes/professor.js&#45;&gt;middlewares/validationMiddleware.js -->
<g id="edge20" class="edge">
<title>routes/professor.js&#45;&gt;middlewares/validationMiddleware.js</title>
<path fill="none" stroke="#757575" d="M258.1902,-200.6641C278.4135,-202.3038 301.553,-204.18 324.6643,-206.0539"/>
<polygon fill="#757575" stroke="#757575" points="324.6629,-209.5652 334.9131,-206.8848 325.2287,-202.588 324.6629,-209.5652"/>
</g>
<!-- utils/role.js -->
<g id="node17" class="node">
<title>utils/role.js</title>
<path fill="none" stroke="#cfffac" d="M485.8333,-187C485.8333,-187 421.1667,-187 421.1667,-187 417.3333,-187 413.5,-183.1667 413.5,-179.3333 413.5,-179.3333 413.5,-171.6667 413.5,-171.6667 413.5,-167.8333 417.3333,-164 421.1667,-164 421.1667,-164 485.8333,-164 485.8333,-164 489.6667,-164 493.5,-167.8333 493.5,-171.6667 493.5,-171.6667 493.5,-179.3333 493.5,-179.3333 493.5,-183.1667 489.6667,-187 485.8333,-187"/>
<text text-anchor="middle" x="453.5" y="-171.8" font-family="Arial" font-size="14.00" fill="#cfffac">utils/role.js</text>
</g>
<!-- routes/professor.js&#45;&gt;utils/role.js -->
<g id="edge21" class="edge">
<title>routes/professor.js&#45;&gt;utils/role.js</title>
<path fill="none" stroke="#757575" d="M258.1902,-190.5818C302.9277,-187.1272 361.9367,-182.5705 403.3406,-179.3733"/>
<polygon fill="#757575" stroke="#757575" points="403.7675,-182.8509 413.4683,-178.5913 403.2285,-175.8716 403.7675,-182.8509"/>
</g>
<!-- controllers/student.js -->
<g id="node9" class="node">
<title>controllers/student.js</title>
<path fill="none" stroke="#c6c5fe" d="M515.8333,-146C515.8333,-146 391.1667,-146 391.1667,-146 387.3333,-146 383.5,-142.1667 383.5,-138.3333 383.5,-138.3333 383.5,-130.6667 383.5,-130.6667 383.5,-126.8333 387.3333,-123 391.1667,-123 391.1667,-123 515.8333,-123 515.8333,-123 519.6667,-123 523.5,-126.8333 523.5,-130.6667 523.5,-130.6667 523.5,-138.3333 523.5,-138.3333 523.5,-142.1667 519.6667,-146 515.8333,-146"/>
<text text-anchor="middle" x="453.5" y="-130.8" font-family="Arial" font-size="14.00" fill="#c6c5fe">controllers/student.js</text>
</g>
<!-- routes/student.js&#45;&gt;controllers/student.js -->
<g id="edge22" class="edge">
<title>routes/student.js&#45;&gt;controllers/student.js</title>
<path fill="none" stroke="#757575" d="M252.6247,-150.0116C288.0843,-147.2734 333.927,-143.7334 372.8635,-140.7268"/>
<polygon fill="#757575" stroke="#757575" points="373.4232,-144.1941 383.124,-139.9344 372.8842,-137.2148 373.4232,-144.1941"/>
</g>
<!-- routes/student.js&#45;&gt;middlewares/jwtMiddleware.js -->
<g id="edge23" class="edge">
<title>routes/student.js&#45;&gt;middlewares/jwtMiddleware.js</title>
<path fill="none" stroke="#757575" d="M252.5004,-152.2615C268.6867,-149.3855 285.5153,-144.0642 299,-134.5 324.9903,-116.066 308.8094,-90.6483 335,-72.5 338.3293,-70.193 341.8352,-68.1209 345.4717,-66.2613"/>
<polygon fill="#757575" stroke="#757575" points="347.0843,-69.3734 354.7539,-62.0639 344.2001,-62.9952 347.0843,-69.3734"/>
</g>
<!-- routes/student.js&#45;&gt;middlewares/roleMiddleware.js -->
<g id="edge24" class="edge">
<title>routes/student.js&#45;&gt;middlewares/roleMiddleware.js</title>
<path fill="none" stroke="#757575" d="M252.6052,-146.7671C267.9559,-143.8127 284.3276,-139.8243 299,-134.5 316.2056,-128.2565 317.7521,-120.6254 335,-114.5 342.5586,-111.8156 350.5152,-109.4641 358.5803,-107.406"/>
<polygon fill="#757575" stroke="#757575" points="359.5444,-110.7741 368.4524,-105.0383 357.9118,-103.9671 359.5444,-110.7741"/>
</g>
<!-- routes/student.js&#45;&gt;middlewares/validationMiddleware.js -->
<g id="edge25" class="edge">
<title>routes/student.js&#45;&gt;middlewares/validationMiddleware.js</title>
<path fill="none" stroke="#757575" d="M252.6801,-162.6671C268.0304,-165.769 284.3833,-169.9448 299,-175.5 316.3149,-182.0806 317.5848,-190.1895 335,-196.5 341.1943,-198.7445 347.6635,-200.7396 354.2455,-202.5127"/>
<polygon fill="#757575" stroke="#757575" points="353.3991,-205.9087 363.9509,-204.9548 355.1072,-199.1203 353.3991,-205.9087"/>
</g>
<!-- routes/student.js&#45;&gt;utils/role.js -->
<g id="edge26" class="edge">
<title>routes/student.js&#45;&gt;utils/role.js</title>
<path fill="none" stroke="#757575" d="M252.6247,-159.2128C297.9132,-162.8849 360.1388,-167.9302 403.2815,-171.4282"/>
<polygon fill="#757575" stroke="#757575" points="403.0209,-174.9185 413.2711,-172.2382 403.5867,-167.9414 403.0209,-174.9185"/>
</g>
<!-- controllers/professor.js&#45;&gt;models/index.js -->
<g id="edge7" class="edge">
<title>controllers/professor.js&#45;&gt;models/index.js</title>
<path fill="none" stroke="#757575" d="M529.7269,-257.5C552.0478,-257.5 576.239,-257.5 597.8075,-257.5"/>
<polygon fill="#757575" stroke="#757575" points="597.8397,-261.0001 607.8397,-257.5 597.8397,-254.0001 597.8397,-261.0001"/>
</g>
<!-- controllers/student.js&#45;&gt;models/index.js -->
<g id="edge8" class="edge">
<title>controllers/student.js&#45;&gt;models/index.js</title>
<path fill="none" stroke="#757575" d="M523.5077,-139.0234C540.1437,-142.1887 557.3118,-147.3059 572,-155.5 607.1283,-175.0969 635.6324,-213.4589 650.8844,-237.1458"/>
<polygon fill="#757575" stroke="#757575" points="647.9763,-239.0969 656.2421,-245.7247 653.9136,-235.3889 647.9763,-239.0969"/>
</g>
<!-- utils/errors.js -->
<g id="node11" class="node">
<title>utils/errors.js</title>
<path fill="none" stroke="#cfffac" d="M701.8333,-85C701.8333,-85 624.1667,-85 624.1667,-85 620.3333,-85 616.5,-81.1667 616.5,-77.3333 616.5,-77.3333 616.5,-69.6667 616.5,-69.6667 616.5,-65.8333 620.3333,-62 624.1667,-62 624.1667,-62 701.8333,-62 701.8333,-62 705.6667,-62 709.5,-65.8333 709.5,-69.6667 709.5,-69.6667 709.5,-77.3333 709.5,-77.3333 709.5,-81.1667 705.6667,-85 701.8333,-85"/>
<text text-anchor="middle" x="663" y="-69.8" font-family="Arial" font-size="14.00" fill="#cfffac">utils/errors.js</text>
</g>
<!-- middlewares/jwtMiddleware.js&#45;&gt;utils/errors.js -->
<g id="edge9" class="edge">
<title>middlewares/jwtMiddleware.js&#45;&gt;utils/errors.js</title>
<path fill="none" stroke="#757575" d="M552.1154,-62.3851C570.6597,-64.2439 589.4613,-66.1286 606.1847,-67.8049"/>
<polygon fill="#757575" stroke="#757575" points="606.0087,-71.3047 616.308,-68.8197 606.7069,-64.3396 606.0087,-71.3047"/>
</g>
<!-- middlewares/ownerMiddleware.js -->
<g id="node12" class="node">
<title>middlewares/ownerMiddleware.js</title>
<path fill="none" stroke="#c6c5fe" d="M554.3333,-23C554.3333,-23 352.6667,-23 352.6667,-23 348.8333,-23 345,-19.1667 345,-15.3333 345,-15.3333 345,-7.6667 345,-7.6667 345,-3.8333 348.8333,0 352.6667,0 352.6667,0 554.3333,0 554.3333,0 558.1667,0 562,-3.8333 562,-7.6667 562,-7.6667 562,-15.3333 562,-15.3333 562,-19.1667 558.1667,-23 554.3333,-23"/>
<text text-anchor="middle" x="453.5" y="-7.8" font-family="Arial" font-size="14.00" fill="#c6c5fe">middlewares/ownerMiddleware.js</text>
</g>
<!-- middlewares/ownerMiddleware.js&#45;&gt;utils/errors.js -->
<g id="edge10" class="edge">
<title>middlewares/ownerMiddleware.js&#45;&gt;utils/errors.js</title>
<path fill="none" stroke="#757575" d="M538.6188,-23.0566C549.9534,-25.4113 561.3357,-28.2034 572,-31.5 593.0397,-38.0038 615.5179,-48.3424 632.8698,-57.1343"/>
<polygon fill="#757575" stroke="#757575" points="631.4503,-60.3405 641.9406,-61.8254 634.666,-54.1228 631.4503,-60.3405"/>
</g>
<!-- middlewares/roleMiddleware.js&#45;&gt;utils/errors.js -->
<g id="edge11" class="edge">
<title>middlewares/roleMiddleware.js&#45;&gt;utils/errors.js</title>
<path fill="none" stroke="#757575" d="M555.1815,-83.7929C572.7132,-82.1193 590.3595,-80.4347 606.1539,-78.9268"/>
<polygon fill="#757575" stroke="#757575" points="606.6238,-82.398 616.2459,-77.9634 605.9585,-75.4297 606.6238,-82.398"/>
</g>
<!-- middlewares/validationMiddleware.js&#45;&gt;utils/errors.js -->
<g id="edge12" class="edge">
<title>middlewares/validationMiddleware.js&#45;&gt;utils/errors.js</title>
<path fill="none" stroke="#757575" d="M555.0271,-204.9152C560.9541,-202.5559 566.6656,-199.7743 572,-196.5 611.9216,-171.9955 640.0237,-122.8865 653.6469,-94.6977"/>
<polygon fill="#757575" stroke="#757575" points="656.9545,-95.8858 658.0059,-85.3432 650.6096,-92.9291 656.9545,-95.8858"/>
</g>
<!-- models/professor.js&#45;&gt;config/bookshelf.js -->
<g id="edge15" class="edge">
<title>models/professor.js&#45;&gt;config/bookshelf.js</title>
<path fill="none" stroke="#757575" d="M867.9632,-266.0299C887.6122,-270.8539 910.6234,-276.5034 931.2127,-281.5582"/>
<polygon fill="#757575" stroke="#757575" points="930.5541,-285.0004 941.1002,-283.9857 932.2231,-278.2023 930.5541,-285.0004"/>
</g>
<!-- models/student.js&#45;&gt;config/bookshelf.js -->
<g id="edge16" class="edge">
<title>models/student.js&#45;&gt;config/bookshelf.js</title>
<path fill="none" stroke="#757575" d="M882.2364,-295.5C892.5358,-295.5 903.3228,-295.5 913.9057,-295.5"/>
<polygon fill="#757575" stroke="#757575" points="913.967,-299.0001 923.967,-295.5 913.9669,-292.0001 913.967,-299.0001"/>
</g>
</g>
</svg>
